<svg width="390" height="300" viewBox="0 0 390 300" fill="none" xmlns="http://www.w3.org/2000/svg">
<path fill-rule="evenodd" clip-rule="evenodd" d="M40.3072 88.2083C22.5304 83.176 0.113858 80.0245 -2.24447 61.699C-5.1413 39.1891 8.37027 15.6845 30.1557 9.32549C49.3574 3.72066 63.6096 22.9763 75.623 38.9702C86.7545 53.7901 99.6709 72.4293 88.8678 87.4914C78.4359 102.036 57.5281 93.0833 40.3072 88.2083Z" fill="#0F046C" fill-opacity="0.3"/>
<path fill-rule="evenodd" clip-rule="evenodd" d="M353.099 102.021C372.804 102.552 388.452 116.857 394.738 135.47C401.26 154.782 398.388 176.452 382.619 189.427C363.187 205.416 335.67 215.565 315.21 200.905C294.543 186.098 294.811 156.712 303.89 133.019C311.542 113.049 331.651 101.442 353.099 102.021Z" fill="#D4A373" fill-opacity="0.4"/>
<path fill-rule="evenodd" clip-rule="evenodd" d="M66.4051 212.141C73.1653 219.531 64.0312 230.559 63.6536 240.567C63.1589 253.678 73.2953 268.798 63.9211 277.978C53.8149 287.874 36.3276 285.991 23.6274 279.764C12.0439 274.085 8.88768 260.581 4.04742 248.622C-1.6473 234.553 -16.3441 217.651 -6.01561 206.528C4.52706 195.175 22.3382 211.093 37.7851 212.29C47.7922 213.065 59.6304 204.735 66.4051 212.141Z" fill="#F87171" fill-opacity="0.76"/>
</svg>
